<?xml version="1.0" standalone="no"?>
<!DOCTYPE svg PUBLIC "-//W3C//DTD SVG 20010904//EN"
 "http://www.w3.org/TR/2001/REC-SVG-20010904/DTD/svg10.dtd">
<svg version="1.0" xmlns="http://www.w3.org/2000/svg"
 width="700.000000pt" height="700.000000pt" viewBox="0 0 700.000000 700.000000"
 preserveAspectRatio="xMidYMid meet">
<metadata>
Created by potrace 1.14, written by Peter Selinger 2001-2017
</metadata>
<g transform="translate(0.000000,700.000000) scale(0.100000,-0.100000)"
fill="#000000" stroke="none">
<path d="M3360 6914 c-355 -23 -623 -72 -910 -165 -523 -171 -969 -447 -1365
-843 -526 -527 -849 -1174 -966 -1931 -30 -198 -38 -627 -15 -844 141 -1334
1043 -2465 2302 -2890 348 -118 632 -167 1009 -178 487 -13 940 69 1377 248
1142 470 1945 1515 2103 2739 23 173 30 532 16 716 -66 813 -416 1569 -996
2149 -549 549 -1275 899 -2030 979 -145 15 -429 26 -525 20z m35 -1244 c407
-48 913 -160 1245 -275 116 -40 281 -116 368 -169 180 -109 259 -287 202 -456
-44 -131 -106 -210 -235 -296 -363 -241 -864 -292 -1599 -163 -634 111 -1129
272 -1336 435 -185 145 -241 367 -134 536 127 200 444 357 804 397 52 6 111
13 130 15 75 9 393 -5 555 -24z m-65 -1456 c289 -30 555 -78 905 -165 347 -87
601 -182 781 -295 190 -117 255 -297 176 -484 -41 -97 -90 -158 -185 -229
-259 -193 -656 -283 -1121 -252 -607 40 -1457 253 -1761 440 -93 57 -192 155
-228 226 -93 186 -38 371 156 519 293 222 700 299 1277 240z m-5 -1465 c315
-35 710 -113 1015 -199 378 -108 655 -241 750 -361 82 -104 103 -238 55 -364
-45 -120 -109 -194 -241 -281 -362 -238 -892 -284 -1644 -144 -518 96 -975
236 -1187 362 -77 45 -181 145 -221 210 -65 108 -73 247 -21 357 30 63 168
197 256 249 299 179 692 233 1238 171z"/>
<path d="M6942 3500 c0 -367 4 -578 9 -550 52 266 52 834 0 1100 -5 28 -9
-183 -9 -550z"/>
</g>
</svg>
